<svg viewBox="0 0 512 512.00005" style="height:21px"><path d="m122.273438 284.238281 104.875 104.914063-17.042969 95.007812c-1.191407 6.667969-6.703125 11.703125-13.449219 12.304688l-175.421875 15.535156 73.339844-73.472656c29.789062 13.8125 63.996093-7.984375 63.996093-40.691406 0-24.75-20.203124-44.882813-45.03125-44.882813-33.273437 0-55.0625 34.941406-40.449218 64.582031l-73.089844 73.242188 15.53125-176.507813c.589844-6.765625 5.664062-12.292969 12.359375-13.472656zm0 0"></path><path d="m176.09375 193.75 142.277344 142.546875c-23.757813 17.65625-46.171875 29.191406-67.097656 34.507813l-109.675782-109.722657c5.253906-20.941406 16.8125-43.46875 34.496094-67.332031zm0 0"></path><path d="m341.808594 317.273438c-.632813-.632813-146.074219-146.386719-146.761719-146.953126 67.671875-77.257812 249.503906-212.308593 304.089844-157.632812 56.183593 56.296875-85.582031 241.515625-157.328125 304.585938zm0 0"></path><path d="m128.550781 397.832031c0-8.1875-6.734375-14.847656-15.011719-14.847656-8.277343 0-15.011718 6.660156-15.011718 14.847656s6.734375 14.847657 15.011718 14.847657c8.277344 0 15.011719-6.660157 15.011719-14.847657zm0 0"></path></svg>
